<svg height="512pt" viewBox="0 -1 512 511" width="512pt" xmlns="http://www.w3.org/2000/svg"><path d="m33.316406 50.847656c0 12.140625 9.875 22.015625 22.011719 22.015625 12.140625 0 22.015625-9.875 22.015625-22.015625 0-12.136718-9.875-22.011718-22.015625-22.011718-12.136719 0-22.011719 9.875-22.011719 22.011718zm29.023438 0c0 3.867188-3.144532 7.011719-7.011719 7.011719-3.863281 0-7.007813-3.144531-7.007813-7.011719 0-3.863281 3.144532-7.011718 7.007813-7.011718 3.867187 0 7.011719 3.148437 7.011719 7.011718zm0 0"/><path d="m89.363281 50.847656c0 12.140625 9.875 22.015625 22.011719 22.015625 12.140625 0 22.015625-9.875 22.015625-22.015625 0-12.136718-9.875-22.011718-22.015625-22.011718-12.136719 0-22.011719 9.875-22.011719 22.011718zm29.023438 0c0 3.867188-3.144531 7.011719-7.011719 7.011719-3.863281 0-7.007812-3.144531-7.007812-7.011719 0-3.863281 3.144531-7.011718 7.007812-7.011718 3.867188 0 7.011719 3.148437 7.011719 7.011718zm0 0"/><path d="m145.410156 50.847656c0 12.140625 9.875 22.015625 22.011719 22.015625 12.140625 0 22.015625-9.875 22.015625-22.015625 0-12.136718-9.875-22.011718-22.015625-22.011718-12.136719 0-22.011719 9.875-22.011719 22.011718zm29.023438 0c0 3.867188-3.144532 7.011719-7.011719 7.011719-3.863281 0-7.007813-3.144531-7.007813-7.011719 0-3.863281 3.144532-7.011718 7.007813-7.011718 3.867187 0 7.011719 3.148437 7.011719 7.011718zm0 0"/><path d="m456.761719 249.183594h-55.738281c-4.140626 0-7.5 3.359375-7.5 7.5 0 4.144531 3.359374 7.503906 7.5 7.503906h55.738281c4.140625 0 7.5-3.359375 7.5-7.503906 0-4.140625-3.359375-7.5-7.5-7.5zm0 0"/><path d="m55.238281 264.1875h52.402344c4.140625 0 7.5-3.359375 7.5-7.503906 0-4.140625-3.359375-7.5-7.5-7.5h-52.402344c-4.140625 0-7.5 3.359375-7.5 7.5 0 4.144531 3.359375 7.503906 7.5 7.503906zm0 0"/><path d="m456.761719 285.6875h-42.398438c-4.144531 0-7.503906 3.359375-7.503906 7.5 0 4.144531 3.359375 7.503906 7.503906 7.503906h42.398438c4.140625 0 7.5-3.359375 7.5-7.503906 0-4.140625-3.359375-7.5-7.5-7.5zm0 0"/><path d="m55.238281 300.691406h41.066407c4.140624 0 7.5-3.359375 7.5-7.503906 0-4.140625-3.359376-7.5-7.5-7.5h-41.066407c-4.140625 0-7.5 3.359375-7.5 7.5 0 4.144531 3.359375 7.503906 7.5 7.503906zm0 0"/><path d="m456.761719 322.191406h-55.738281c-4.140626 0-7.5 3.359375-7.5 7.503906 0 4.140626 3.359374 7.5 7.5 7.5h55.738281c4.140625 0 7.5-3.359374 7.5-7.5 0-4.144531-3.359375-7.503906-7.5-7.503906zm0 0"/><path d="m55.238281 337.195312h52.402344c4.140625 0 7.5-3.359374 7.5-7.5 0-4.144531-3.359375-7.503906-7.5-7.503906h-52.402344c-4.140625 0-7.5 3.359375-7.5 7.503906 0 4.140626 3.359375 7.5 7.5 7.5zm0 0"/><path d="m478.988281.5h-116.46875c-4.144531 0-7.5 3.359375-7.5 7.5 0 4.144531 3.355469 7.503906 7.5 7.503906h116.46875c9.929688 0 18.007813 8.078125 18.007813 18.007813v54.023437h-481.992188v-54.023437c0-9.929688 8.078125-18.007813 18.007813-18.007813h284c4.140625 0 7.5-3.359375 7.5-7.503906 0-4.140625-3.359375-7.5-7.5-7.5h-284c-18.203125 0-33.011719 14.808594-33.011719 33.011719v322.683593c0 18.203126 14.808594 33.015626 33.011719 33.015626h131.246093c1.050782.324218 2.09375.640624 3.117188.949218 5.621094 1.6875 10.929688 3.285156 14.429688 5.835938 3.425781 2.492187 6.539062 7 9.835937 11.773437 1.773437 2.566407 3.628906 5.242188 5.671875 7.792969v21.539062c0 4.144532 3.359375 7.503907 7.5 7.503907 4.144531 0 7.503906-3.359375 7.503906-7.503907v-9.964843c.117188.039062.226563.089843.34375.128906 2.597656.84375 5.222656 1.191406 7.847656 1.191406 6.835938 0 13.65625-2.371093 19.875-4.527343 5.679688-1.976563 11.042969-3.835938 15.617188-3.835938 4.578125 0 9.941406 1.863281 15.621094 3.835938 8.605468 2.988281 18.359375 6.375 27.71875 3.335937.121094-.039063.230468-.085937.347656-.128906v66.347656c0 .089844 0 .253906-.207031.394531-.210938.144532-.363281.085938-.445313.054688l-37.464844-14.441406c-3.589843-1.378907-7.546874-1.382813-11.136718 0l-37.464844 14.441406c-.082031.03125-.234375.089844-.445312-.054688-.207032-.140625-.207032-.304687-.207032-.394531v-10.039063c0-4.144531-3.359375-7.5-7.503906-7.5-4.140625 0-7.5 3.355469-7.5 7.5v10.039063c0 5.105469 2.511719 9.875 6.722656 12.765625 4.207032 2.886719 9.5625 3.515625 14.324219 1.679688l37.46875-14.4375c.109375-.042969.234375-.042969.34375 0l37.46875 14.4375c1.804687.695312 3.6875 1.039062 5.566406 1.039062 3.085938 0 6.144531-.921875 8.761719-2.71875 4.207031-2.890625 6.71875-7.660156 6.71875-12.765625v-77.921875c2.046875-2.550781 3.902344-5.226562 5.671875-7.792969 3.296875-4.773437 6.410156-9.28125 9.835937-11.773437 3.5-2.546875 8.808594-4.148438 14.429688-5.835938 1.023438-.308594 2.066406-.625 3.117188-.949218h131.246093c18.203125 0 33.011719-14.808594 33.011719-33.015626v-322.683593c0-18.203125-14.808594-33.011719-33.011719-33.011719zm-119.046875 348.402344c.148438 7.488281.292969 14.566406-2.625 18.574218-2.976562 4.089844-9.796875 6.144532-17.019531 8.316407-6.570313 1.976562-13.367187 4.023437-18.929687 8.070312-5.492188 3.996094-9.488282 9.785157-13.355469 15.382813-4.316407 6.25-8.390625 12.152344-13.304688 13.75-4.570312 1.484375-11.171875-.8125-18.164062-3.238282-6.605469-2.292968-13.4375-4.667968-20.542969-4.667968-7.109375 0-13.941406 2.371094-20.542969 4.667968-6.992187 2.425782-13.597656 4.722657-18.164062 3.238282-4.917969-1.597656-8.992188-7.5-13.308594-13.75-3.867187-5.597656-7.863281-11.386719-13.351563-15.382813-5.566406-4.046875-12.359374-6.09375-18.933593-8.070312-7.21875-2.171875-14.039063-4.226563-17.015625-8.316407-2.917969-4.011718-2.777344-11.085937-2.625-18.574218.136718-6.898438.28125-14.035156-1.867188-20.648438-2.058594-6.347656-6.28125-11.867187-10.363281-17.207031-4.652344-6.085937-9.050781-11.832031-9.050781-17.175781s4.398437-11.089844 9.050781-17.175782c4.082031-5.339843 8.304687-10.859374 10.363281-17.207031 2.148438-6.613281 2.003906-13.746093 1.867188-20.644531-.152344-7.492188-.292969-14.566406 2.625-18.578125 2.976562-4.089844 9.796875-6.144531 17.015625-8.316406 6.574219-1.976563 13.371093-4.023438 18.933593-8.070313 5.488282-3.996094 9.484376-9.785156 13.351563-15.382812 4.316406-6.25 8.394531-12.152344 13.308594-13.75 1-.324219 2.101562-.46875 3.285156-.46875 4.203125 0 9.421875 1.8125 14.878906 3.710937 6.605469 2.292969 13.433594 4.664063 20.542969 4.664063s13.9375-2.371094 20.542969-4.664063c6.988281-2.429687 13.589843-4.726562 18.164062-3.242187 4.914063 1.597656 8.988281 7.5 13.304688 13.75 3.867187 5.597656 7.863281 11.386718 13.355469 15.382812 5.5625 4.046875 12.359374 6.09375 18.929687 8.070313 7.222656 2.171875 14.042969 4.226562 17.019531 8.316406 2.917969 4.011719 2.773438 11.085937 2.625 18.578125-.140625 6.898438-.285156 14.03125 1.863282 20.644531 2.0625 6.347657 6.28125 11.867188 10.367187 17.207031 4.652344 6.085938 9.046875 11.832032 9.046875 17.175782s-4.394531 11.09375-9.046875 17.179687c-4.085937 5.335938-8.304687 10.855469-10.367187 17.203125-2.144532 6.617188-2 13.75-1.863282 20.648438zm-296.730468-140.722656v-66.027344h385.578124v66.027344h-82.207031c-6-5.777344-14.40625-8.320313-21.957031-10.59375-5.621094-1.691407-10.925781-3.289063-14.429688-5.839844-3.421874-2.488282-6.539062-7-9.835937-11.773438-5.285156-7.65625-11.277344-16.332031-21.019531-19.496094-9.363282-3.039062-19.117188.347657-27.71875 3.339844-5.679688 1.972656-11.042969 3.835938-15.621094 3.835938s-9.941406-1.863282-15.621094-3.835938c-8.601562-2.988281-18.355468-6.378906-27.71875-3.339844-9.742187 3.164063-15.730468 11.839844-21.019531 19.496094-3.296875 4.773438-6.410156 9.285156-9.832031 11.773438-3.5 2.550781-8.8125 4.148437-14.429688 5.839844-7.554687 2.273437-15.957031 4.816406-21.957031 10.59375zm433.785156 148.015624c0 9.933594-8.078125 18.011719-18.007813 18.011719h-108.195312c4.492187-7.746093 4.316406-17.191406 4.148437-25.609375-.121094-5.914062-.230468-11.5 1.132813-15.710937 1.269531-3.90625 4.546875-8.1875 8.015625-12.726563 5.6875-7.4375 12.132812-15.867187 12.132812-26.289062s-6.445312-18.851563-12.132812-26.292969c-3.46875-4.535156-6.746094-8.816406-8.015625-12.722656-1.363281-4.210938-1.253907-9.796875-1.132813-15.710938.101563-5.144531.210938-10.675781-.742187-15.964843h77.089843c6.894532 0 12.503907-5.605469 12.503907-12.5v-71.027344c0-6.894532-5.609375-12.5-12.503907-12.5h-390.578124c-6.894532 0-12.5 5.605468-12.5 12.5v71.027344c0 6.894531 5.605468 12.5 12.5 12.5h77.089843c-.953125 5.289062-.84375 10.820312-.742187 15.964843.121094 5.914063.234375 11.503907-1.132813 15.710938-1.269531 3.90625-4.542969 8.1875-8.011719 12.726562-5.6875 7.4375-12.136718 15.867188-12.136718 26.289063s6.449218 18.851562 12.136718 26.289062c3.46875 4.539063 6.742188 8.820313 8.011719 12.726563 1.367188 4.207031 1.253907 9.796875 1.136719 15.710937-.171875 8.417969-.347656 17.859375 4.144531 25.609375h-108.195312c-9.929688 0-18.007813-8.082031-18.007813-18.011719v-253.65625h481.992188zm0 0"/><path d="m256 203.308594c-49.9375 0-90.5625 40.628906-90.5625 90.566406 0 49.933594 40.625 90.5625 90.5625 90.5625s90.566406-40.628906 90.566406-90.5625c0-49.9375-40.628906-90.566406-90.566406-90.566406zm0 166.125c-41.664062 0-75.5625-33.898438-75.5625-75.5625 0-41.664063 33.898438-75.558594 75.5625-75.558594s75.5625 33.894531 75.5625 75.558594c0 41.664062-33.898438 75.5625-75.5625 75.5625zm0 0"/></svg>