<?xml version="1.0" encoding="iso-8859-1"?>
<!-- Generator: Adobe Illustrator 19.0.0, SVG Export Plug-In . SVG Version: 6.00 Build 0)  -->
<svg version="1.1" id="Capa_1" xmlns="http://www.w3.org/2000/svg" xmlns:xlink="http://www.w3.org/1999/xlink" x="0px" y="0px"
	 viewBox="0 0 511.999 511.999" style="enable-background:new 0 0 511.999 511.999;" xml:space="preserve">
<g>
	<g>
		<path d="M257.329,30.603c-4.151,0-7.515,3.365-7.515,7.515v28.094c0,4.15,3.365,7.515,7.515,7.515c4.15,0,7.515-3.365,7.515-7.515
			V38.118C264.843,33.968,261.479,30.603,257.329,30.603z"/>
	</g>
</g>
<g>
	<g>
		<path d="M402.281,95.843c-2.061-3.603-6.653-4.852-10.254-2.791l-24.386,13.95c-3.602,2.061-4.851,6.652-2.79,10.254
			c1.387,2.427,3.922,3.785,6.529,3.785c1.266,0,2.548-0.321,3.725-0.994l24.386-13.95
			C403.092,104.036,404.342,99.445,402.281,95.843z"/>
	</g>
</g>
<g>
	<g>
		<path d="M343.839,50.177c-3.296-2.525-8.013-1.897-10.536,1.398L316.224,73.88c-2.522,3.295-1.897,8.012,1.399,10.535
			c1.363,1.044,2.97,1.549,4.563,1.549c2.259,0,4.493-1.015,5.973-2.947l17.079-22.306C347.76,57.416,347.134,52.699,343.839,50.177
			z"/>
	</g>
</g>
<g>
	<g>
		<path d="M144.359,107.003l-24.385-13.95c-3.605-2.062-8.195-0.812-10.254,2.79c-2.062,3.603-0.813,8.194,2.789,10.254
			l24.385,13.95c1.177,0.673,2.46,0.994,3.725,0.994c2.608,0,5.142-1.359,6.53-3.784
			C149.21,113.654,147.961,109.063,144.359,107.003z"/>
	</g>
</g>
<g>
	<g>
		<path d="M195.775,73.88l-17.08-22.306c-2.523-3.295-7.239-3.923-10.536-1.398c-3.295,2.523-3.921,7.24-1.399,10.535l17.081,22.306
			c1.48,1.933,3.713,2.947,5.973,2.947c1.593,0,3.199-0.505,4.563-1.549C197.673,81.891,198.298,77.174,195.775,73.88z"/>
	</g>
</g>
<g>
	<g>
		<path d="M452.895,48.892c-4.151,0-7.515,3.365-7.515,7.515v74.345h-95.371c-21.215-28.17-54.863-46.41-92.68-46.41
			s-71.465,18.24-92.679,46.41h-98.03V56.407c0-4.15-3.364-7.515-7.515-7.515C26.515,48.892,0,75.407,0,107.996v319.186
			c0,0.555,0.064,1.094,0.178,1.615c1.038,13.83,7.02,26.679,17.02,36.433c10.687,10.424,24.796,16.165,39.729,16.165h398.145
			c14.931,0,29.041-5.74,39.728-16.165c10-9.754,15.982-22.603,17.021-36.432c0.114-0.521,0.178-1.06,0.178-1.616V107.996
			C512,75.407,485.485,48.892,452.895,48.892z M455.073,466.365H56.927c-22.792,0-41.141-17.794-41.861-40.544
			c0.043-1.429,0.154-2.847,0.333-4.248c0.001-0.005,0.001-0.01,0.002-0.016c0.085-0.667,0.186-1.332,0.301-1.992
			c0.013-0.073,0.026-0.146,0.039-0.219c0.105-0.589,0.223-1.175,0.353-1.758c0.035-0.159,0.073-0.319,0.11-0.478
			c0.115-0.495,0.238-0.987,0.371-1.477c0.071-0.26,0.146-0.52,0.221-0.779c0.111-0.384,0.225-0.767,0.347-1.146
			c0.12-0.375,0.249-0.746,0.379-1.117c0.092-0.263,0.183-0.526,0.281-0.788c0.183-0.49,0.376-0.976,0.576-1.458
			c0.058-0.14,0.114-0.283,0.173-0.422c0.255-0.597,0.522-1.188,0.803-1.771c0.014-0.028,0.026-0.056,0.04-0.085
			c5.878-12.163,17.182-21.23,30.749-24.044c0.038-0.008,0.076-0.017,0.114-0.025c0.621-0.127,1.249-0.236,1.88-0.337
			c0.106-0.017,0.211-0.038,0.318-0.054c0.57-0.087,1.146-0.155,1.724-0.219c0.162-0.018,0.324-0.043,0.487-0.059
			c0.556-0.056,1.118-0.093,1.68-0.128c0.178-0.011,0.356-0.03,0.535-0.039c0.736-0.037,1.478-0.056,2.223-0.056
			c4.151,0,7.515-3.365,7.515-7.515V203.265v-0.001c0-4.15-3.364-7.515-7.515-7.515c-4.151,0-7.515,3.365-7.515,7.515v0.001v165.285
			c-12.69,1.605-24.469,7.265-33.757,16.334c-0.976,0.953-1.902,1.945-2.803,2.953v-279.84c0-21.741,15.825-39.858,36.56-43.435
			v108.644c0,4.15,3.364,7.515,7.515,7.515c4.151,0,7.515-3.365,7.515-7.515V145.78h88.364
			c-7.018,13.084-11.423,27.339-13.05,42.147c-0.053,0.479-0.107,0.957-0.154,1.438c-0.053,0.543-0.099,1.088-0.145,1.633
			c-0.05,0.596-0.096,1.193-0.137,1.792c-0.033,0.48-0.064,0.959-0.091,1.44c-0.04,0.711-0.071,1.424-0.098,2.138
			c-0.015,0.388-0.033,0.774-0.044,1.162c-0.031,1.109-0.051,2.221-0.051,3.338c0,0.001,0,0.002,0,0.002
			c0,15.563,3.063,30.804,8.978,44.975c2.688,6.441,5.965,12.661,9.811,18.588l0.149,0.229c0.3,0.462,0.6,0.923,0.855,1.301
			c1.709,2.607,3.369,5.17,4.98,7.69c0.162,0.255,0.342,0.491,0.528,0.719c0.06,0.073,0.123,0.14,0.185,0.21
			c0.135,0.152,0.273,0.299,0.419,0.438c0.073,0.07,0.146,0.14,0.222,0.207c0.156,0.138,0.319,0.269,0.485,0.392
			c0.064,0.048,0.125,0.1,0.19,0.145c0.228,0.159,0.463,0.305,0.705,0.437c0.07,0.038,0.143,0.069,0.213,0.105
			c0.18,0.091,0.364,0.176,0.55,0.253c0.097,0.039,0.194,0.075,0.293,0.11c0.173,0.062,0.348,0.117,0.525,0.166
			c0.097,0.027,0.192,0.055,0.291,0.078c0.229,0.054,0.462,0.097,0.695,0.129c0.046,0.006,0.091,0.017,0.137,0.022
			c0.268,0.032,0.537,0.046,0.808,0.05c0.031,0,0.061,0.006,0.091,0.006c0.055,0,0.11-0.01,0.165-0.012
			c0.236-0.005,0.473-0.022,0.709-0.049c0.085-0.01,0.169-0.018,0.255-0.031c0.301-0.046,0.6-0.107,0.897-0.19
			c0.057-0.016,0.112-0.038,0.169-0.055c0.25-0.077,0.497-0.168,0.741-0.273c0.082-0.035,0.163-0.07,0.244-0.108
			c0.292-0.137,0.58-0.288,0.859-0.466c2.185-1.397,3.405-3.736,3.466-6.148c0.024-0.965-0.136-1.941-0.495-2.873
			c-0.179-0.466-0.408-0.921-0.687-1.359c-1.642-2.567-3.333-5.179-5.126-7.914c-0.26-0.386-0.514-0.778-0.768-1.168l-0.186-0.286
			c-3.338-5.144-6.183-10.55-8.518-16.152c-5.138-12.324-7.806-25.604-7.806-39.167v-0.001c0-1.158,0.027-2.313,0.065-3.466
			c0.011-0.312,0.022-0.622,0.035-0.933c0.045-1.055,0.102-2.108,0.179-3.157c0.018-0.241,0.038-0.482,0.058-0.722
			c0.074-0.921,0.163-1.84,0.262-2.755c0.049-0.454,0.1-0.907,0.155-1.36c0.085-0.699,0.18-1.396,0.28-2.091
			c0.12-0.841,0.25-1.677,0.391-2.512c0.073-0.434,0.146-0.868,0.224-1.301c0.126-0.691,0.255-1.381,0.396-2.067
			c0.022-0.108,0.046-0.215,0.069-0.324c9.541-46.081,50.292-80.813,98.973-80.813c48.67,0,89.415,34.717,98.967,80.782
			c0.025,0.121,0.052,0.241,0.077,0.363c0.138,0.682,0.268,1.368,0.393,2.055c0.079,0.44,0.154,0.881,0.227,1.322
			c0.138,0.824,0.268,1.65,0.386,2.48c0.1,0.702,0.196,1.407,0.283,2.112c0.055,0.449,0.105,0.9,0.154,1.351
			c0.099,0.92,0.188,1.842,0.262,2.766c0.019,0.236,0.04,0.473,0.057,0.71c0.077,1.051,0.134,2.105,0.179,3.162
			c0.013,0.311,0.025,0.62,0.035,0.931c0.038,1.153,0.065,2.307,0.065,3.466v0.001c0,16.028-3.726,31.662-10.87,45.817
			c-1.648,3.266-3.479,6.455-5.488,9.551l-0.153,0.236c-0.255,0.391-0.508,0.783-0.82,1.247c-1.098,1.674-2.174,3.33-3.232,4.969
			c-0.378,0.586-0.74,1.157-1.113,1.738c-0.669,1.043-1.343,2.089-1.996,3.117c-0.44,0.691-0.863,1.368-1.294,2.053
			c-0.569,0.903-1.144,1.81-1.701,2.7c-0.445,0.711-0.874,1.408-1.311,2.111c-0.525,0.846-1.055,1.696-1.568,2.531
			c-0.434,0.705-0.853,1.396-1.279,2.093c-0.499,0.818-1.003,1.639-1.491,2.446c-0.41,0.676-0.806,1.34-1.207,2.008
			c-0.487,0.811-0.978,1.624-1.453,2.423c-0.384,0.644-0.754,1.274-1.131,1.911c-0.476,0.804-0.953,1.61-1.418,2.402
			c-0.36,0.614-0.708,1.215-1.062,1.823c-0.463,0.797-0.928,1.593-1.38,2.377c-0.333,0.576-0.654,1.141-0.981,1.71
			c-0.457,0.798-0.914,1.595-1.359,2.38c-0.303,0.534-0.597,1.058-0.895,1.585c-0.451,0.8-0.9,1.598-1.339,2.383
			c-0.276,0.494-0.543,0.978-0.814,1.466c-0.444,0.8-0.885,1.597-1.315,2.381c-0.248,0.453-0.491,0.898-0.734,1.346
			c-0.438,0.804-0.873,1.601-1.297,2.387c-0.22,0.408-0.435,0.809-0.651,1.212c-0.433,0.807-0.86,1.605-1.277,2.392
			c-0.193,0.364-0.383,0.722-0.572,1.082c-0.427,0.809-0.848,1.609-1.258,2.396c-0.168,0.322-0.333,0.639-0.498,0.958
			c-0.42,0.808-0.832,1.605-1.233,2.389c-0.144,0.281-0.287,0.559-0.428,0.837c-0.413,0.808-0.817,1.603-1.21,2.385
			c-0.055,0.109-0.114,0.224-0.169,0.334v-81.45c0-1.155-0.269-2.245-0.734-3.223c-0.015-0.032-0.024-0.066-0.04-0.098
			l-20.018-41.863v-0.001l-17.517-36.632c-1.248-2.611-3.886-4.273-6.78-4.273s-5.531,1.662-6.78,4.273l-8.383,17.531l-9.135,19.1
			c-0.002,0.003-0.003,0.007-0.004,0.011l-20.014,41.854c-0.015,0.032-0.025,0.066-0.04,0.099c-0.466,0.978-0.734,2.068-0.734,3.223
			v81.479c-0.005-0.01-0.01-0.02-0.015-0.03c-1.12-2.223-2.313-4.552-3.583-6.986c-0.028-0.053-0.057-0.108-0.085-0.162
			c-0.584-1.118-1.186-2.259-1.802-3.421c-0.067-0.127-0.133-0.251-0.201-0.38c-0.648-1.217-1.313-2.457-1.997-3.72
			c-0.048-0.089-0.098-0.18-0.146-0.27c-0.612-1.13-1.242-2.281-1.884-3.448c-0.137-0.25-0.275-0.499-0.414-0.75
			c-0.699-1.266-1.412-2.549-2.145-3.858c-0.056-0.1-0.114-0.202-0.171-0.303c-0.666-1.186-1.351-2.393-2.046-3.613
			c-0.19-0.335-0.382-0.669-0.575-1.007c-0.764-1.336-1.54-2.683-2.339-4.058c-2.087-3.588-6.686-4.805-10.274-2.718
			c-3.139,1.826-4.463,5.576-3.348,8.888c0.159,0.473,0.369,0.938,0.629,1.386c1.276,2.193,2.505,4.336,3.689,6.429
			c0.12,0.212,0.235,0.419,0.355,0.63c0.469,0.83,0.936,1.658,1.391,2.471c0.105,0.188,0.205,0.371,0.31,0.558
			c0.461,0.827,0.919,1.649,1.365,2.459c0.265,0.479,0.518,0.946,0.777,1.419c0.278,0.507,0.561,1.02,0.833,1.52
			c0.362,0.665,0.712,1.316,1.064,1.968c0.159,0.295,0.324,0.597,0.481,0.89c1.001,1.863,1.96,3.672,2.878,5.429
			c0.007,0.014,0.015,0.028,0.022,0.042c7.348,14.05,12.086,24.598,14.735,30.883c0.022,0.052,0.047,0.11,0.068,0.162
			c0.103,0.244,0.196,0.47,0.293,0.701c0.06,0.143,0.124,0.297,0.181,0.435c0.041,0.099,0.077,0.187,0.117,0.284
			c0.967,2.34,1.569,3.906,1.837,4.62v56.799c0,14.141,11.505,25.646,25.646,25.646h38.887c14.141,0,25.646-11.504,25.646-25.646
			v-56.8c0.15-0.4,0.405-1.063,0.76-1.962c0.015-0.039,0.027-0.068,0.043-0.108c0.033-0.082,0.074-0.183,0.108-0.27
			c3.714-9.296,17.394-41.198,47.007-87.117c1.067-1.655,2.155-3.328,3.264-5.02c0.308-0.457,0.608-0.918,0.907-1.38l0.192-0.296
			c5.365-8.27,9.624-17.124,12.717-26.365c3.977-11.88,6.028-24.399,6.028-37.132c0-0.001,0-0.002,0-0.002
			c0-1.116-0.02-2.228-0.051-3.338c-0.011-0.389-0.029-0.776-0.044-1.165c-0.027-0.712-0.058-1.424-0.098-2.133
			c-0.027-0.483-0.059-0.966-0.091-1.448c-0.041-0.595-0.086-1.189-0.136-1.782c-0.046-0.548-0.092-1.096-0.145-1.643
			c-0.046-0.473-0.1-0.944-0.152-1.415c-1.626-14.814-6.032-29.075-13.052-42.165h85.704v160.292c0,4.15,3.364,7.515,7.515,7.515
			c4.151,0,7.515-3.365,7.515-7.515V64.562c20.735,3.577,36.561,21.693,36.561,43.435v279.833c-0.9-1.006-1.823-1.995-2.797-2.946
			c-9.288-9.07-21.067-14.729-33.757-16.334v-32.417c0-4.15-3.364-7.515-7.515-7.515s-7.515,3.365-7.515,7.515v39.46
			c0,4.15,3.364,7.515,7.515,7.515c0.745,0,1.487,0.02,2.223,0.056c0.179,0.009,0.357,0.028,0.535,0.039
			c0.562,0.035,1.124,0.072,1.68,0.128c0.163,0.016,0.325,0.041,0.487,0.059c0.577,0.064,1.153,0.133,1.724,0.219
			c0.106,0.016,0.211,0.037,0.318,0.054c0.63,0.1,1.258,0.209,1.88,0.337c0.039,0.008,0.077,0.018,0.116,0.026
			c13.568,2.814,24.873,11.883,30.75,24.047c0.011,0.024,0.022,0.048,0.033,0.072c0.283,0.587,0.551,1.182,0.808,1.784
			c0.058,0.137,0.113,0.276,0.17,0.414c0.201,0.485,0.395,0.973,0.579,1.466c0.096,0.259,0.186,0.519,0.278,0.779
			c0.131,0.373,0.259,0.747,0.381,1.124c0.121,0.379,0.235,0.759,0.346,1.142c0.076,0.261,0.151,0.521,0.222,0.783
			c0.131,0.488,0.254,0.98,0.37,1.473c0.037,0.16,0.075,0.32,0.111,0.48c0.128,0.582,0.247,1.167,0.353,1.756
			c0.013,0.074,0.027,0.148,0.04,0.222c0.114,0.659,0.216,1.323,0.301,1.989c0.001,0.006,0.002,0.012,0.003,0.018
			c0.177,1.402,0.289,2.818,0.332,4.247C496.212,448.572,477.863,466.365,455.073,466.365z M227.269,383.881v-17.907h60.12v17.907
			H227.269z M287.389,398.911v18.409c0,5.853-4.762,10.617-10.617,10.617h-38.887c-5.854,0-10.617-4.762-10.617-10.617v-18.409
			H287.389z M227.269,350.945V250.106h60.12v100.839H227.269z M231.718,234.996l12.832-26.834h25.561l12.832,26.834H231.718z"/>
	</g>
</g>
<g>
</g>
<g>
</g>
<g>
</g>
<g>
</g>
<g>
</g>
<g>
</g>
<g>
</g>
<g>
</g>
<g>
</g>
<g>
</g>
<g>
</g>
<g>
</g>
<g>
</g>
<g>
</g>
<g>
</g>
</svg>
